<?xml version="1.0" encoding="UTF-8" standalone="no"?>
<!DOCTYPE svg PUBLIC "-//W3C//DTD SVG 1.1//EN" "http://www.w3.org/Graphics/SVG/1.1/DTD/svg11.dtd">
<svg width="100%" height="100%" viewBox="0 0 164 78" version="1.1" xmlns="http://www.w3.org/2000/svg" xmlns:xlink="http://www.w3.org/1999/xlink" xml:space="preserve" xmlns:serif="http://www.serif.com/" style="fill-rule:evenodd;clip-rule:evenodd;stroke-linejoin:round;stroke-miterlimit:2;">
    <g id="Logo-Copy" transform="matrix(1,0,0,1,14,14)">
        <g id="Landingpage">
            <g id="Register---Onboarding">
                <g id="Logo-Copy1" serif:id="Logo-Copy">
                    <path id="Combined-Shape" d="M50,34L50,50L34,50L34,42L42,42L42,34L50,34ZM42,0L42,34L34,34L34,42L0,42L0,0L42,0Z" style="fill:rgb(223,115,115);"/>
                    <g transform="matrix(1,0,0,1,59,24)">
                        <g id="JeeLearner">
                            <g>
                                <path d="M-0.105,3.384C-0.656,3.384 -1.09,3.305 -1.406,3.146L-1.406,1.872C-0.99,1.989 -0.557,2.048 -0.105,2.048C0.475,2.048 0.916,1.872 1.217,1.521C1.519,1.169 1.67,0.662 1.67,0L1.67,-12.85L3.164,-12.85L3.164,-0.123C3.164,0.99 2.883,1.853 2.32,2.465C1.758,3.078 0.949,3.384 -0.105,3.384Z" style="fill:rgb(73,73,73);fill-rule:nonzero;"/>
                                <path d="M10.424,0.176C9,0.176 7.876,-0.258 7.053,-1.125C6.23,-1.992 5.818,-3.196 5.818,-4.737C5.818,-6.29 6.201,-7.523 6.965,-8.438C7.73,-9.352 8.757,-9.809 10.046,-9.809C11.253,-9.809 12.208,-9.412 12.911,-8.618C13.614,-7.824 13.966,-6.776 13.966,-5.476L13.966,-4.553L7.33,-4.553C7.359,-3.422 7.645,-2.563 8.187,-1.978C8.729,-1.392 9.492,-1.099 10.477,-1.099C11.514,-1.099 12.539,-1.315 13.553,-1.749L13.553,-0.448C13.037,-0.226 12.549,-0.066 12.089,0.031C11.629,0.127 11.074,0.176 10.424,0.176ZM10.028,-8.587C9.255,-8.587 8.638,-8.335 8.178,-7.831C7.718,-7.327 7.447,-6.63 7.365,-5.739L12.401,-5.739C12.401,-6.659 12.196,-7.364 11.786,-7.853C11.376,-8.342 10.79,-8.587 10.028,-8.587Z" style="fill:rgb(73,73,73);fill-rule:nonzero;"/>
                                <path d="M20.522,0.176C19.099,0.176 17.975,-0.258 17.152,-1.125C16.329,-1.992 15.917,-3.196 15.917,-4.737C15.917,-6.29 16.299,-7.523 17.064,-8.438C17.829,-9.352 18.855,-9.809 20.145,-9.809C21.352,-9.809 22.307,-9.412 23.01,-8.618C23.713,-7.824 24.064,-6.776 24.064,-5.476L24.064,-4.553L17.429,-4.553C17.458,-3.422 17.744,-2.563 18.286,-1.978C18.828,-1.392 19.591,-1.099 20.575,-1.099C21.612,-1.099 22.638,-1.315 23.651,-1.749L23.651,-0.448C23.136,-0.226 22.648,-0.066 22.188,0.031C21.728,0.127 21.173,0.176 20.522,0.176ZM20.127,-8.587C19.354,-8.587 18.737,-8.335 18.277,-7.831C17.817,-7.327 17.546,-6.63 17.464,-5.739L22.5,-5.739C22.5,-6.659 22.295,-7.364 21.885,-7.853C21.475,-8.342 20.889,-8.587 20.127,-8.587Z" style="fill:rgb(73,73,73);fill-rule:nonzero;"/>
                                <path d="M26.771,0L26.771,-12.85L28.266,-12.85L28.266,-1.354L33.935,-1.354L33.935,0L26.771,0Z" style="fill:rgb(73,73,73);fill-rule:nonzero;"/>
                                <path d="M39.964,0.176C38.54,0.176 37.417,-0.258 36.593,-1.125C35.77,-1.992 35.358,-3.196 35.358,-4.737C35.358,-6.29 35.741,-7.523 36.505,-8.438C37.27,-9.352 38.297,-9.809 39.586,-9.809C40.793,-9.809 41.748,-9.412 42.451,-8.618C43.154,-7.824 43.506,-6.776 43.506,-5.476L43.506,-4.553L36.87,-4.553C36.899,-3.422 37.185,-2.563 37.727,-1.978C38.269,-1.392 39.032,-1.099 40.017,-1.099C41.054,-1.099 42.079,-1.315 43.093,-1.749L43.093,-0.448C42.577,-0.226 42.089,-0.066 41.629,0.031C41.169,0.127 40.614,0.176 39.964,0.176ZM39.568,-8.587C38.795,-8.587 38.178,-8.335 37.718,-7.831C37.258,-7.327 36.987,-6.63 36.905,-5.739L41.941,-5.739C41.941,-6.659 41.736,-7.364 41.326,-7.853C40.916,-8.342 40.33,-8.587 39.568,-8.587Z" style="fill:rgb(73,73,73);fill-rule:nonzero;"/>
                                <path d="M51.917,0L51.627,-1.371L51.557,-1.371C51.076,-0.768 50.597,-0.359 50.12,-0.145C49.642,0.069 49.046,0.176 48.331,0.176C47.376,0.176 46.627,-0.07 46.085,-0.563C45.543,-1.055 45.272,-1.755 45.272,-2.663C45.272,-4.608 46.828,-5.628 49.939,-5.722L51.574,-5.774L51.574,-6.372C51.574,-7.128 51.412,-7.686 51.086,-8.046C50.761,-8.407 50.241,-8.587 49.526,-8.587C48.724,-8.587 47.815,-8.341 46.802,-7.849L46.354,-8.965C46.828,-9.223 47.348,-9.425 47.914,-9.571C48.479,-9.718 49.046,-9.791 49.614,-9.791C50.763,-9.791 51.614,-9.536 52.167,-9.026C52.721,-8.517 52.998,-7.699 52.998,-6.574L52.998,0L51.917,0ZM48.621,-1.028C49.529,-1.028 50.243,-1.277 50.761,-1.775C51.28,-2.273 51.539,-2.971 51.539,-3.867L51.539,-4.737L50.08,-4.676C48.92,-4.635 48.083,-4.455 47.571,-4.135C47.058,-3.816 46.802,-3.319 46.802,-2.646C46.802,-2.118 46.961,-1.717 47.281,-1.441C47.6,-1.166 48.047,-1.028 48.621,-1.028Z" style="fill:rgb(73,73,73);fill-rule:nonzero;"/>
                                <path d="M60.398,-9.809C60.826,-9.809 61.21,-9.773 61.55,-9.703L61.348,-8.35C60.949,-8.438 60.598,-8.481 60.293,-8.481C59.514,-8.481 58.847,-8.165 58.293,-7.532C57.74,-6.899 57.463,-6.111 57.463,-5.168L57.463,0L56.004,0L56.004,-9.633L57.208,-9.633L57.375,-7.849L57.445,-7.849C57.803,-8.476 58.233,-8.959 58.737,-9.299C59.241,-9.639 59.795,-9.809 60.398,-9.809Z" style="fill:rgb(73,73,73);fill-rule:nonzero;"/>
                                <path d="M69.943,0L69.943,-6.231C69.943,-7.017 69.765,-7.603 69.407,-7.989C69.05,-8.376 68.49,-8.569 67.729,-8.569C66.721,-8.569 65.982,-8.297 65.514,-7.752C65.045,-7.207 64.811,-6.308 64.811,-5.054L64.811,0L63.352,0L63.352,-9.633L64.538,-9.633L64.775,-8.314L64.846,-8.314C65.145,-8.789 65.563,-9.157 66.103,-9.417C66.642,-9.678 67.242,-9.809 67.904,-9.809C69.064,-9.809 69.938,-9.529 70.523,-8.969C71.109,-8.41 71.402,-7.515 71.402,-6.284L71.402,0L69.943,0Z" style="fill:rgb(73,73,73);fill-rule:nonzero;"/>
                                <path d="M78.469,0.176C77.045,0.176 75.921,-0.258 75.098,-1.125C74.275,-1.992 73.863,-3.196 73.863,-4.737C73.863,-6.29 74.246,-7.523 75.01,-8.438C75.775,-9.352 76.802,-9.809 78.091,-9.809C79.298,-9.809 80.253,-9.412 80.956,-8.618C81.659,-7.824 82.011,-6.776 82.011,-5.476L82.011,-4.553L75.375,-4.553C75.404,-3.422 75.69,-2.563 76.232,-1.978C76.774,-1.392 77.537,-1.099 78.521,-1.099C79.559,-1.099 80.584,-1.315 81.598,-1.749L81.598,-0.448C81.082,-0.226 80.594,-0.066 80.134,0.031C79.674,0.127 79.119,0.176 78.469,0.176ZM78.073,-8.587C77.3,-8.587 76.683,-8.335 76.223,-7.831C75.763,-7.327 75.492,-6.63 75.41,-5.739L80.446,-5.739C80.446,-6.659 80.241,-7.364 79.831,-7.853C79.421,-8.342 78.835,-8.587 78.073,-8.587Z" style="fill:rgb(73,73,73);fill-rule:nonzero;"/>
                                <path d="M88.893,-9.809C89.32,-9.809 89.704,-9.773 90.044,-9.703L89.842,-8.35C89.443,-8.438 89.092,-8.481 88.787,-8.481C88.008,-8.481 87.341,-8.165 86.788,-7.532C86.234,-6.899 85.957,-6.111 85.957,-5.168L85.957,0L84.498,0L84.498,-9.633L85.702,-9.633L85.869,-7.849L85.939,-7.849C86.297,-8.476 86.728,-8.959 87.231,-9.299C87.735,-9.639 88.289,-9.809 88.893,-9.809Z" style="fill:rgb(73,73,73);fill-rule:nonzero;"/>
                            </g>
                        </g>
                    </g>
                </g>
            </g>
        </g>
    </g>
</svg>
